<svg width="81" height="149" viewBox="0 0 81 149" fill="none" xmlns="http://www.w3.org/2000/svg">
<path d="M40.5 0C45.8505 0 50.9868 1.08664 55.6982 3.03516C56.0473 3.17951 56.394 3.3287 56.7383 3.48242C57.5989 3.86665 58.4444 4.27998 59.2734 4.7207C59.6049 4.89691 59.9336 5.07778 60.2598 5.2627C60.7493 5.54027 61.2329 5.82734 61.71 6.12402C62.505 6.61844 63.2819 7.13938 64.04 7.68457C66.7688 9.64692 69.2506 11.9283 71.4219 14.4629C71.6632 14.7445 71.9003 15.0296 72.1338 15.3174C72.4887 15.7526 72.8341 16.1953 73.1709 16.6445C74.0127 17.7674 74.797 18.9329 75.5186 20.1367C76.0958 21.0998 76.6336 22.087 77.1279 23.0967C77.2515 23.3491 77.372 23.6032 77.4902 23.8584C77.7267 24.3688 77.9526 24.8844 78.167 25.4053C78.4887 26.1868 78.7854 26.9797 79.0557 27.7832C79.1457 28.0509 79.2323 28.3199 79.3164 28.5898C80.495 32.3708 81.0938 36.3738 81 40.5C81 53.9272 74.4654 65.8277 64.4033 73.1963C64.2693 73.2985 64.135 73.3999 64 73.5V128C64 133.112 61.5159 138.224 57.6855 142C56.4089 143.259 54.9828 144.369 53.4492 145.281C53.053 145.534 52.6529 145.771 52.251 145.992C52.0499 146.103 51.8484 146.21 51.6465 146.312C50.6373 146.826 49.6198 147.238 48.6162 147.533C47.0101 148.006 45.4402 148.18 44 148H37C33.8394 148 30.7683 147.138 28.0195 145.646C25.37 144.295 23.0547 142.419 21.2393 140.143C20.96 139.792 20.6925 139.433 20.4375 139.064C20.31 138.88 20.1857 138.694 20.0645 138.505C19.8218 138.127 19.5916 137.741 19.375 137.346C17.8606 134.584 17 131.416 17 128V73.4883C6.70946 66.1444 0 54.1059 0 40.5C0 18.1325 18.1325 0 40.5 0ZM23 38C22.4477 38 22 38.4477 22 39V40C22 40.5523 22.4477 41 23 41H58C58.5523 41 59 40.5523 59 40V39C59 38.4477 58.5523 38 58 38H23Z" fill="#262626"/>
</svg>
